<?xml version="1.0" encoding="UTF-8"?>
<svg width="908px" height="736px" viewBox="0 0 908 736" version="1.1" xmlns="http://www.w3.org/2000/svg" xmlns:xlink="http://www.w3.org/1999/xlink">
    <!-- Generator: Sketch 51.2 (57519) - http://www.bohemiancoding.com/sketch -->
    <title>未命名</title>
    <desc>Created with Sketch.</desc>
    <defs></defs>
    <g id="Page-1" stroke="none" stroke-width="1" fill="none" fill-rule="evenodd">
        <g id="声音" fill="#000000" fill-rule="nonzero">
            <path d="M780.087968,31.005388 C769.302902,19.723437 751.327792,19.307975 740.044356,30.065993 C728.733289,40.86392 728.318833,58.742103 739.105946,70.025077 C809.900146,144.023418 850.495343,252.57574 850.495343,367.832763 C850.495343,483.10309 809.900146,591.656435 739.078316,665.668079 C728.292227,676.95003 728.705659,694.828212 740.016726,705.61386 C745.494709,710.825558 752.545577,713.424756 759.568815,713.424756 C767.035163,713.424756 774.474904,710.49503 780.059315,704.673441 C860.808646,620.275239 907.130499,497.511241 907.130499,367.832763 C907.130498,238.181915 860.809668,115.41587 780.087968,31.005388 Z M685.179593,117.449179 C674.007701,106.581667 656.087852,106.775072 645.135981,117.946506 C634.213786,129.132266 634.43483,147.010449 645.634352,157.90559 C697.761659,208.675904 727.683335,285.220231 727.683335,367.860393 C727.683335,450.500555 697.761659,527.002926 645.634352,577.774263 C634.43483,588.681684 634.213787,606.559866 645.135981,617.732323 C650.694808,623.414742 658.050634,626.262603 665.407484,626.262603 C672.541244,626.262603 679.676027,623.581541 685.179593,618.229649 C748.174857,556.867093 784.319513,465.613763 784.319513,367.860391 C784.319512,270.065066 748.173833,178.825039 685.179593,117.449179 Z M588.721868,203.407923 C576.60952,193.521762 558.772562,195.430228 548.872692,207.458169 C539.000453,219.543415 540.826106,237.35099 552.938454,247.223848 C585.459434,273.658917 604.872348,318.762161 604.872348,367.859369 C604.872348,416.252542 585.874913,460.980233 554.072324,487.50126 C542.069474,497.510218 540.492494,515.333142 550.504932,527.321174 C556.11902,533.983921 564.165606,537.441672 572.2695,537.441672 C578.657239,537.441672 585.101262,535.285566 590.411416,530.875116 C634.9332,493.735241 661.50955,432.775867 661.50955,367.860392 C661.507504,301.934914 634.295654,240.490493 588.721868,203.407923 Z M412.289488,3.532687 C402.721183,-1.197034 391.189073,-0.227963 382.644116,6.17384 L150.350231,179.488141 L29.279961,179.488141 C13.628875,179.488141 0.962895,192.125973 0.962895,207.735485 L0.962895,527.970973 C0.962895,543.594812 13.628875,556.23162 29.279961,556.23162 L150.350231,556.23162 L382.644116,729.532618 C387.620658,733.265639 393.593941,735.158755 399.594854,735.158755 C403.90929,735.158755 408.278986,734.164101 412.288464,732.188097 C421.856769,727.389814 427.912943,717.613147 427.912943,706.912434 L427.912943,28.807327 C427.912943,18.092287 421.856769,8.329946 412.289488,3.532687 Z M371.277789,650.514961 L176.731122,505.35079 C171.836448,501.71396 165.890795,499.722606 159.77936,499.722606 L57.598049,499.722606 L57.59805,235.997156 L159.779361,235.997156 C165.891819,235.997156 171.836449,234.005802 176.731123,230.369995 L371.277789,85.205824 L371.277789,650.514961 Z" id="Shape"></path>
        </g>
    </g>
</svg>